<?xml version="1.0" encoding="UTF-8"?>
<svg version="1.1" xmlns="http://www.w3.org/2000/svg" width="512" height="512">
<path d="M0 0 C1.89066707 -0.00461252 3.78133056 -0.01096779 5.67198658 -0.01890898 C10.8521059 -0.03557707 16.03192971 -0.0273673 21.21204996 -0.0149641 C26.80450326 -0.00590567 32.39690612 -0.01988729 37.98934937 -0.03088379 C48.93891058 -0.04866507 59.88836208 -0.04483072 70.83792758 -0.03323323 C79.73730796 -0.02419767 88.63665761 -0.02297544 97.53604126 -0.02732849 C98.80291458 -0.02794142 100.0697879 -0.02855436 101.37505132 -0.02918586 C103.94872468 -0.03046477 106.52239802 -0.03176162 109.09607136 -0.03307623 C132.53847975 -0.04415581 155.98081452 -0.03266818 179.42320974 -0.01170584 C200.81334048 0.00727593 222.20337595 0.00557739 243.59350586 -0.0135498 C267.63769455 -0.03497852 291.68181824 -0.04338226 315.72601986 -0.03110075 C318.29019609 -0.02982656 320.85437233 -0.02856908 323.41854858 -0.02732849 C325.31095684 -0.02640284 325.31095684 -0.02640284 327.24159557 -0.02545848 C336.12971483 -0.02200559 345.01780028 -0.02783264 353.90591431 -0.0372467 C364.73837844 -0.04846802 375.57072664 -0.04542372 386.4031775 -0.02412373 C391.92947791 -0.01361523 397.45558505 -0.00948826 402.981884 -0.02272034 C408.04243338 -0.03465393 413.10261065 -0.02806544 418.16312635 -0.00681013 C419.99206086 -0.00234821 421.82102692 -0.00460109 423.64994109 -0.01431328 C437.426118 -0.0818483 447.00374238 1.3019031 457.27807617 11.14074707 C466.24380942 20.79125213 466.7754989 30.21815955 466.75144958 42.93595886 C466.75590486 44.41837881 466.76121986 45.90079638 466.76731831 47.38321048 C466.78147399 51.44881268 466.78316206 55.51433834 466.7827214 59.57996166 C466.78437175 63.96799156 466.79744233 68.35599012 466.80891418 72.7440033 C466.83174618 82.33499729 466.83968281 91.92596912 466.84474063 101.51698661 C466.84799965 107.50810624 466.85452336 113.49921946 466.86174202 119.49033546 C466.88130536 136.08542899 466.89771121 152.68051657 466.90061855 169.27562237 C466.90080612 170.33719783 466.90099369 171.39877329 466.90118695 172.4925177 C466.90155319 174.64448885 466.90191689 176.79646 466.90227806 178.94843116 C466.90246087 180.01663906 466.90264368 181.08484696 466.90283203 182.1854248 C466.90310285 183.78969743 466.90310285 183.78969743 466.90337915 185.4263796 C466.90692047 202.75464102 466.93394144 220.08277814 466.97132992 237.41099646 C467.00942884 255.21123801 467.02877614 273.0114179 467.02907807 290.81170112 C467.02966227 300.80206242 467.0381303 310.79227542 467.06707573 320.7825985 C467.09161075 329.2896696 467.09885815 337.79653832 467.0838282 346.30363526 C467.07666807 350.64141445 467.07747786 354.97879414 467.1002388 359.31652832 C467.12090712 363.29367301 467.11815604 367.27011307 467.09736396 371.24725077 C467.09388399 372.67995614 467.09871538 374.11271317 467.11306839 375.54535087 C467.22578058 387.57876447 464.90887728 397.93972833 456.35229492 406.82824707 C445.78474083 416.29501427 433.90176717 416.94901377 420.28735352 416.84851074 C418.67013566 416.84766315 417.05291665 416.8481422 415.43569946 416.84983826 C411.07269166 416.85069446 406.7099343 416.83312984 402.34698439 416.81211638 C397.77728535 416.7932867 393.20757975 416.7915942 388.6378479 416.78804016 C379.9966299 416.77873811 371.35552657 416.75414937 362.71435893 416.72399169 C352.87152518 416.69039023 343.02868578 416.67394726 333.1858089 416.65890539 C312.94957372 416.62759808 292.71344156 416.57487357 272.47729492 416.50793457 C272.49300537 417.1481958 272.50871582 417.78845703 272.52490234 418.44812012 C272.58746607 421.36380088 272.626353 424.27934012 272.66479492 427.19543457 C272.68993164 428.20283691 272.71506836 429.21023926 272.7409668 430.24816895 C272.83796713 440.0452029 272.83796713 440.0452029 269.47729492 443.50793457 C267.82729492 443.83793457 266.17729492 444.16793457 264.47729492 444.50793457 C264.47729492 450.77793457 264.47729492 457.04793457 264.47729492 463.50793457 C266.45729492 464.16793457 268.43729492 464.82793457 270.47729492 465.50793457 C273.01368062 468.7049983 272.70859615 472.06479921 272.67260742 476.02355957 C272.66616211 477.2739502 272.6597168 478.52434082 272.65307617 479.81262207 C272.63631836 481.1145752 272.61956055 482.41652832 272.60229492 483.75793457 C272.58875977 485.73406738 272.58875977 485.73406738 272.57495117 487.75012207 C272.55138025 491.00290919 272.51847515 494.25533046 272.47729492 497.50793457 C273.42572266 497.4869873 274.37415039 497.46604004 275.35131836 497.44445801 C278.87745917 497.37619897 282.40289591 497.32609528 285.92944336 497.28820801 C287.45429578 497.26811858 288.9790714 497.24084141 290.50366211 497.20617676 C292.6981909 497.15753662 294.89169961 497.13494061 297.08666992 497.11730957 C298.40634766 497.0963623 299.72602539 497.07541504 301.08569336 497.05383301 C304.47729492 497.50793457 304.47729492 497.50793457 306.90795898 499.31359863 C309.19969984 502.51804275 309.02593125 504.66748024 308.47729492 508.50793457 C306.92050171 510.69493866 306.92050171 510.69493866 304.47729492 512.50793457 C301.80891784 512.90100848 299.55247004 513.04904739 296.88598633 513.01586914 C296.11768305 513.0221091 295.34937977 513.02834907 294.55779457 513.03477812 C291.98117079 513.05074376 289.40548836 513.0380904 286.82885742 513.0255127 C284.98255867 513.03093224 283.13626424 513.03805396 281.28997803 513.04675293 C276.2734698 513.06500912 271.25729013 513.05790926 266.24077606 513.04523659 C260.99489954 513.03512082 255.74905144 513.0444983 250.50317383 513.05078125 C241.69306377 513.0580618 232.88308776 513.04845923 224.07299805 513.02941895 C213.88229695 513.00764946 203.69191595 513.01470054 193.50122261 513.03672457 C184.75717488 513.05486692 176.0132236 513.05744258 167.26916313 513.04696989 C162.0443179 513.04072856 156.8196232 513.03991691 151.5947876 513.05311584 C146.68304688 513.06465676 141.77171949 513.05668079 136.8600235 513.03353882 C135.05564308 513.02824232 133.25122797 513.02978155 131.44686127 513.03858948 C128.98696983 513.04949171 126.5284097 513.03584706 124.06860352 513.01586914 C123.35148508 513.02479203 122.63436665 513.03371491 121.89551735 513.04290819 C118.54993424 512.99006291 116.75183433 512.71165815 114.03408813 510.69493866 C111.75534429 507.49372859 111.93010446 505.33826779 112.47729492 501.50793457 C113.79729492 500.18793457 115.11729492 498.86793457 116.47729492 497.50793457 C127.03729492 497.50793457 137.59729492 497.50793457 148.47729492 497.50793457 C148.47729492 470.77793457 148.47729492 444.04793457 148.47729492 416.50793457 C136.77776367 416.55434082 125.07823242 416.60074707 113.02416992 416.64855957 C105.60489554 416.6690017 98.18564163 416.68842362 90.76635742 416.70324707 C78.9944764 416.72695611 67.22271013 416.7547866 55.45092773 416.80969238 C46.87653807 416.84966574 38.30224176 416.87539237 29.72776151 416.88428855 C25.19111904 416.88948557 20.65474353 416.90162814 16.11818695 416.9308548 C11.84016739 416.95819015 7.56252244 416.96634333 3.28442383 416.9603653 C1.72203784 416.96145749 0.15963813 416.9693029 -1.40267181 416.98475647 C-13.79182599 417.10119773 -24.80176827 415.76046795 -34.55395508 407.49230957 C-43.00571871 398.97346845 -45.85115722 389.85738995 -45.92393529 378.09492165 C-45.91745054 376.70976925 -45.91068063 375.32461815 -45.90365601 373.93946838 C-45.90711555 372.45404655 -45.9118821 370.96862729 -45.91783774 369.48321337 C-45.93033688 365.41402682 -45.92418232 361.34505193 -45.91487908 357.27586472 C-45.90808442 352.882458 -45.91857194 348.48908739 -45.92681885 344.09568787 C-45.94015424 335.49372305 -45.9372792 326.89183679 -45.92858092 318.2898689 C-45.92180359 311.297853 -45.92088788 304.30585911 -45.92415237 297.31384087 C-45.92461207 296.31839325 -45.92507177 295.32294562 -45.9255454 294.29733292 C-45.92650459 292.27503677 -45.92747723 290.25274062 -45.92846318 288.23044448 C-45.93701662 269.26980749 -45.92718388 250.30921402 -45.91106208 231.34858417 C-45.89766101 215.08437773 -45.89998534 198.82023555 -45.91381836 182.55603027 C-45.92987853 163.66442016 -45.93619047 144.77284819 -45.92698157 125.8812322 C-45.92602593 123.86610282 -45.92508282 121.85097343 -45.92415237 119.83584404 C-45.92345813 118.34866396 -45.92345813 118.34866396 -45.92274987 116.83143984 C-45.92016114 109.84945564 -45.9245285 102.86749566 -45.93159103 95.88551521 C-45.94001117 87.37438483 -45.93771515 78.86333744 -45.9217488 70.35221655 C-45.9138727 66.01085329 -45.91076319 61.66962833 -45.92069626 57.32826614 C-45.92965749 53.35145887 -45.92468689 49.37491765 -45.9087636 45.3981344 C-45.90542181 43.96215558 -45.90709631 42.52615413 -45.91439097 41.09018994 C-45.97652341 27.8393314 -43.87349769 19.25393108 -34.70629883 9.59387207 C-24.50130124 -0.0957216 -13.31998766 -0.07073391 0 0 Z " fill="#EEFAFE" transform="translate(45.522705078125,-0.5079345703125)"/>
<path d="M0 0 C1.89066707 -0.00461252 3.78133056 -0.01096779 5.67198658 -0.01890898 C10.8521059 -0.03557707 16.03192971 -0.0273673 21.21204996 -0.0149641 C26.80450326 -0.00590567 32.39690612 -0.01988729 37.98934937 -0.03088379 C48.93891058 -0.04866507 59.88836208 -0.04483072 70.83792758 -0.03323323 C79.73730796 -0.02419767 88.63665761 -0.02297544 97.53604126 -0.02732849 C98.80291458 -0.02794142 100.0697879 -0.02855436 101.37505132 -0.02918586 C103.94872468 -0.03046477 106.52239802 -0.03176162 109.09607136 -0.03307623 C132.53847975 -0.04415581 155.98081452 -0.03266818 179.42320974 -0.01170584 C200.81334048 0.00727593 222.20337595 0.00557739 243.59350586 -0.0135498 C267.63769455 -0.03497852 291.68181824 -0.04338226 315.72601986 -0.03110075 C318.29019609 -0.02982656 320.85437233 -0.02856908 323.41854858 -0.02732849 C325.31095684 -0.02640284 325.31095684 -0.02640284 327.24159557 -0.02545848 C336.12971483 -0.02200559 345.01780028 -0.02783264 353.90591431 -0.0372467 C364.73837844 -0.04846802 375.57072664 -0.04542372 386.4031775 -0.02412373 C391.92947791 -0.01361523 397.45558505 -0.00948826 402.981884 -0.02272034 C408.04243338 -0.03465393 413.10261065 -0.02806544 418.16312635 -0.00681013 C419.99206086 -0.00234821 421.82102692 -0.00460109 423.64994109 -0.01431328 C437.426118 -0.0818483 447.00374238 1.3019031 457.27807617 11.14074707 C466.24380942 20.79125213 466.7754989 30.21815955 466.75144958 42.93595886 C466.75590486 44.41837881 466.76121986 45.90079638 466.76731831 47.38321048 C466.78147399 51.44881268 466.78316206 55.51433834 466.7827214 59.57996166 C466.78437175 63.96799156 466.79744233 68.35599012 466.80891418 72.7440033 C466.83174618 82.33499729 466.83968281 91.92596912 466.84474063 101.51698661 C466.84799965 107.50810624 466.85452336 113.49921946 466.86174202 119.49033546 C466.88130536 136.08542899 466.89771121 152.68051657 466.90061855 169.27562237 C466.90080612 170.33719783 466.90099369 171.39877329 466.90118695 172.4925177 C466.90155319 174.64448885 466.90191689 176.79646 466.90227806 178.94843116 C466.90246087 180.01663906 466.90264368 181.08484696 466.90283203 182.1854248 C466.90310285 183.78969743 466.90310285 183.78969743 466.90337915 185.4263796 C466.90692047 202.75464102 466.93394144 220.08277814 466.97132992 237.41099646 C467.00942884 255.21123801 467.02877614 273.0114179 467.02907807 290.81170112 C467.02966227 300.80206242 467.0381303 310.79227542 467.06707573 320.7825985 C467.09161075 329.2896696 467.09885815 337.79653832 467.0838282 346.30363526 C467.07666807 350.64141445 467.07747786 354.97879414 467.1002388 359.31652832 C467.12090712 363.29367301 467.11815604 367.27011307 467.09736396 371.24725077 C467.09388399 372.67995614 467.09871538 374.11271317 467.11306839 375.54535087 C467.22578058 387.57876447 464.90887728 397.93972833 456.35229492 406.82824707 C445.78474083 416.29501427 433.90176717 416.94901377 420.28735352 416.84851074 C418.67013566 416.84766315 417.05291665 416.8481422 415.43569946 416.84983826 C411.07269166 416.85069446 406.7099343 416.83312984 402.34698439 416.81211638 C397.77728535 416.7932867 393.20757975 416.7915942 388.6378479 416.78804016 C379.9966299 416.77873811 371.35552657 416.75414937 362.71435893 416.72399169 C352.87152518 416.69039023 343.02868578 416.67394726 333.1858089 416.65890539 C312.94957372 416.62759808 292.71344156 416.57487357 272.47729492 416.50793457 C272.49300537 417.1481958 272.50871582 417.78845703 272.52490234 418.44812012 C272.58746607 421.36380088 272.626353 424.27934012 272.66479492 427.19543457 C272.68993164 428.20283691 272.71506836 429.21023926 272.7409668 430.24816895 C272.83796713 440.0452029 272.83796713 440.0452029 269.47729492 443.50793457 C267.82729492 443.83793457 266.17729492 444.16793457 264.47729492 444.50793457 C264.47729492 450.77793457 264.47729492 457.04793457 264.47729492 463.50793457 C266.45729492 464.16793457 268.43729492 464.82793457 270.47729492 465.50793457 C273.01368062 468.7049983 272.70859615 472.06479921 272.67260742 476.02355957 C272.66616211 477.2739502 272.6597168 478.52434082 272.65307617 479.81262207 C272.63631836 481.1145752 272.61956055 482.41652832 272.60229492 483.75793457 C272.58875977 485.73406738 272.58875977 485.73406738 272.57495117 487.75012207 C272.55138025 491.00290919 272.51847515 494.25533046 272.47729492 497.50793457 C273.42572266 497.4869873 274.37415039 497.46604004 275.35131836 497.44445801 C278.87745917 497.37619897 282.40289591 497.32609528 285.92944336 497.28820801 C287.45429578 497.26811858 288.9790714 497.24084141 290.50366211 497.20617676 C292.6981909 497.15753662 294.89169961 497.13494061 297.08666992 497.11730957 C298.40634766 497.0963623 299.72602539 497.07541504 301.08569336 497.05383301 C304.47729492 497.50793457 304.47729492 497.50793457 306.90795898 499.31359863 C309.19969984 502.51804275 309.02593125 504.66748024 308.47729492 508.50793457 C306.92050171 510.69493866 306.92050171 510.69493866 304.47729492 512.50793457 C301.80891784 512.90100848 299.55247004 513.04904739 296.88598633 513.01586914 C296.11768305 513.0221091 295.34937977 513.02834907 294.55779457 513.03477812 C291.98117079 513.05074376 289.40548836 513.0380904 286.82885742 513.0255127 C284.98255867 513.03093224 283.13626424 513.03805396 281.28997803 513.04675293 C276.2734698 513.06500912 271.25729013 513.05790926 266.24077606 513.04523659 C260.99489954 513.03512082 255.74905144 513.0444983 250.50317383 513.05078125 C241.69306377 513.0580618 232.88308776 513.04845923 224.07299805 513.02941895 C213.88229695 513.00764946 203.69191595 513.01470054 193.50122261 513.03672457 C184.75717488 513.05486692 176.0132236 513.05744258 167.26916313 513.04696989 C162.0443179 513.04072856 156.8196232 513.03991691 151.5947876 513.05311584 C146.68304688 513.06465676 141.77171949 513.05668079 136.8600235 513.03353882 C135.05564308 513.02824232 133.25122797 513.02978155 131.44686127 513.03858948 C128.98696983 513.04949171 126.5284097 513.03584706 124.06860352 513.01586914 C123.35148508 513.02479203 122.63436665 513.03371491 121.89551735 513.04290819 C118.54993424 512.99006291 116.75183433 512.71165815 114.03408813 510.69493866 C111.75534429 507.49372859 111.93010446 505.33826779 112.47729492 501.50793457 C113.79729492 500.18793457 115.11729492 498.86793457 116.47729492 497.50793457 C127.03729492 497.50793457 137.59729492 497.50793457 148.47729492 497.50793457 C148.47729492 470.77793457 148.47729492 444.04793457 148.47729492 416.50793457 C136.77776367 416.55434082 125.07823242 416.60074707 113.02416992 416.64855957 C105.60489554 416.6690017 98.18564163 416.68842362 90.76635742 416.70324707 C78.9944764 416.72695611 67.22271013 416.7547866 55.45092773 416.80969238 C46.87653807 416.84966574 38.30224176 416.87539237 29.72776151 416.88428855 C25.19111904 416.88948557 20.65474353 416.90162814 16.11818695 416.9308548 C11.84016739 416.95819015 7.56252244 416.96634333 3.28442383 416.9603653 C1.72203784 416.96145749 0.15963813 416.9693029 -1.40267181 416.98475647 C-13.79182599 417.10119773 -24.80176827 415.76046795 -34.55395508 407.49230957 C-43.00571871 398.97346845 -45.85115722 389.85738995 -45.92393529 378.09492165 C-45.91745054 376.70976925 -45.91068063 375.32461815 -45.90365601 373.93946838 C-45.90711555 372.45404655 -45.9118821 370.96862729 -45.91783774 369.48321337 C-45.93033688 365.41402682 -45.92418232 361.34505193 -45.91487908 357.27586472 C-45.90808442 352.882458 -45.91857194 348.48908739 -45.92681885 344.09568787 C-45.94015424 335.49372305 -45.9372792 326.89183679 -45.92858092 318.2898689 C-45.92180359 311.297853 -45.92088788 304.30585911 -45.92415237 297.31384087 C-45.92461207 296.31839325 -45.92507177 295.32294562 -45.9255454 294.29733292 C-45.92650459 292.27503677 -45.92747723 290.25274062 -45.92846318 288.23044448 C-45.93701662 269.26980749 -45.92718388 250.30921402 -45.91106208 231.34858417 C-45.89766101 215.08437773 -45.89998534 198.82023555 -45.91381836 182.55603027 C-45.92987853 163.66442016 -45.93619047 144.77284819 -45.92698157 125.8812322 C-45.92602593 123.86610282 -45.92508282 121.85097343 -45.92415237 119.83584404 C-45.92345813 118.34866396 -45.92345813 118.34866396 -45.92274987 116.83143984 C-45.92016114 109.84945564 -45.9245285 102.86749566 -45.93159103 95.88551521 C-45.94001117 87.37438483 -45.93771515 78.86333744 -45.9217488 70.35221655 C-45.9138727 66.01085329 -45.91076319 61.66962833 -45.92069626 57.32826614 C-45.92965749 53.35145887 -45.92468689 49.37491765 -45.9087636 45.3981344 C-45.90542181 43.96215558 -45.90709631 42.52615413 -45.91439097 41.09018994 C-45.97652341 27.8393314 -43.87349769 19.25393108 -34.70629883 9.59387207 C-24.50130124 -0.0957216 -13.31998766 -0.07073391 0 0 Z M-25.89770508 22.94543457 C-26.35918945 23.50102051 -26.82067383 24.05660645 -27.29614258 24.62902832 C-29.84939377 28.54021884 -30.77278394 32.04102185 -30.76880074 36.68344593 C-30.77278248 37.71087343 -30.77676422 38.73830093 -30.78086662 39.7968626 C-30.77504129 40.91813455 -30.76921597 42.03940649 -30.76321411 43.19465637 C-30.76492615 44.38843903 -30.76663818 45.58222168 -30.7684021 46.81217957 C-30.77113684 50.12885343 -30.76486301 53.44529157 -30.75485054 56.76193704 C-30.74611942 60.39224341 -30.74903962 64.02254379 -30.75048637 67.65285778 C-30.75154989 74.70046936 -30.74231333 81.74802999 -30.72948372 88.79562847 C-30.71508831 96.94725345 -30.71349447 105.09884779 -30.71191406 113.25048828 C-30.70141176 134.77381179 -30.67348956 156.29712394 -30.64770508 177.82043457 C-30.60645508 225.89730957 -30.56520508 273.97418457 -30.52270508 323.50793457 C128.53729492 323.50793457 287.59729492 323.50793457 451.47729492 323.50793457 C451.55979492 275.49293457 451.64229492 227.47793457 451.72729492 178.00793457 C451.76371094 162.83631348 451.80012695 147.66469238 451.83764648 132.0333252 C451.85102263 118.45636168 451.85102263 118.45636168 451.85906982 104.87939453 C451.86280266 98.8230164 451.8774866 92.76678556 451.89959717 86.71044922 C451.92505933 79.7257468 451.93663854 72.74118585 451.93107472 65.75643668 C451.92866504 62.18341044 451.93248477 58.61070037 451.95415545 55.03773212 C451.97722903 51.21017523 451.96926801 47.38303879 451.95831299 43.55541992 C451.96996365 42.44288597 451.9816143 41.33035202 451.99361801 40.18410492 C451.93574221 32.67371764 450.77706631 27.33183073 445.73120117 21.48449707 C444.89395508 20.81547363 444.89395508 20.81547363 444.03979492 20.13293457 C443.48420898 19.6714502 442.92862305 19.20996582 442.35620117 18.73449707 C437.66027389 15.6689645 433.35393793 15.21868188 427.8565855 15.25066566 C427.09344489 15.24715959 426.33030429 15.24365352 425.54403821 15.2400412 C422.97799163 15.23071166 420.41217123 15.2356545 417.84611511 15.24050903 C415.99133933 15.23677356 414.13656512 15.23217245 412.28179342 15.22677839 C407.17780887 15.21452031 402.07388973 15.21481216 396.96989381 15.21716714 C391.4680628 15.2175746 385.96625296 15.20654297 380.46443176 15.197052 C369.68266395 15.18042571 358.900918 15.17494172 348.11913844 15.17382725 C339.35692706 15.17287756 330.59472291 15.16877123 321.83251381 15.16242599 C301.04267397 15.14767681 280.25283847 15.13537674 259.46299267 15.13642311 C258.79803738 15.13645427 258.13308209 15.13648543 257.44797664 15.13651753 C254.0776673 15.13668374 250.70735795 15.13688183 247.33704861 15.13708694 C246.33300625 15.13714678 246.33300625 15.13714678 245.30868021 15.13720782 C243.95506775 15.1372887 242.60145528 15.13737229 241.24784281 15.13745861 C220.18749911 15.13868414 199.12721981 15.12367102 178.06689453 15.09631348 C154.40842068 15.06559362 130.74997901 15.04840626 107.09148103 15.05023992 C94.56378239 15.05090446 82.03615637 15.04538403 69.50847435 15.02388382 C58.84272861 15.0056967 48.17708842 15.00130439 37.51133391 15.01490267 C32.06834297 15.02144472 26.62555467 15.0215048 21.18258286 15.00419617 C16.20028404 14.98851525 11.21834936 14.99127811 6.2360597 15.00876443 C4.43325077 15.01184532 2.63041499 15.00816114 0.82763769 14.99704428 C-1.6235062 14.98292983 -4.07337164 14.99350331 -6.52447224 15.01015663 C-7.22398234 15.00022027 -7.92349244 14.99028391 -8.64419982 14.98004645 C-15.30690754 15.07571397 -21.67630745 17.66258725 -25.89770508 22.94543457 Z " fill="#000000" transform="translate(45.522705078125,-0.5079345703125)"/>
<path d="M0 0 C0.9580957 0.24943359 0.9580957 0.24943359 1.93554688 0.50390625 C27.90549421 7.39858253 50.16081538 22.00868766 67 43 C67.33 43.66 67.66 44.32 68 45 C68.66 45 69.32 45 70 45 C71.24549452 43.56932405 72.42106422 42.07749658 73.5625 40.5625 C90.94719124 18.40248065 119.02831413 1.34272268 147.24780273 -2.28930664 C179.3129446 -5.61094 211.42179621 -0.0386083 237.484375 19.9375 C241.80240157 23.47774539 245.9413459 27.16609222 250 31 C251.12535156 32.02867188 251.12535156 32.02867188 252.2734375 33.078125 C263.38303832 43.60300999 270.71815611 56.20306679 277 70 C277.61488281 71.32257813 277.61488281 71.32257813 278.2421875 72.671875 C287.70922844 94.54147345 289.54123302 122.14893226 283 145 C282.76893555 145.81130371 282.53787109 146.62260742 282.29980469 147.45849609 C272.9617772 179.29588416 253.55217642 205.82133565 224.16796875 222.00927734 C195.10991311 237.47942527 162.83000933 241.53806443 131.08862305 232.15185547 C115.12160202 226.99915849 100.78811809 218.78825457 88 208 C86.88431641 207.11054688 86.88431641 207.11054688 85.74609375 206.203125 C80.7481319 202.09521115 76.9490686 197.33301794 73.078125 192.16015625 C72.04945313 191.09087891 72.04945313 191.09087891 71 190 C69.68 190 68.36 190 67 190 C64.90480395 192.09528664 64.90480395 192.09528664 62.9375 194.875 C55.63058212 204.19431493 46.92810094 211.57219106 37 218 C35.88625 218.75023437 35.88625 218.75023437 34.75 219.515625 C7.8759955 236.76583059 -24.26293524 239.8853639 -55 234 C-56.06863281 233.80664062 -57.13726562 233.61328125 -58.23828125 233.4140625 C-78.90406309 229.01222239 -96.56151599 216.87968825 -112 203 C-112.65355469 202.43023437 -113.30710938 201.86046875 -113.98046875 201.2734375 C-125.00250553 191.06299962 -132.55152251 177.37754228 -139 164 C-139.43054688 163.12085938 -139.86109375 162.24171875 -140.3046875 161.3359375 C-152.31529811 134.2422345 -151.01721517 100.09350459 -140.56396484 72.86254883 C-129.68604491 46.34302246 -129.68604491 46.34302246 -121 42 C-117.45768939 41.61496624 -115.63742658 41.58064041 -112.625 43.5625 C-110.37519468 46.93720798 -110.62009132 48.98799735 -111 53 C-112.27260515 55.37783819 -113.49392502 57.3468258 -115.0625 59.5 C-130.52442105 82.31762185 -135.73876014 108.90242954 -130.8125 136.125 C-130.25539606 138.42856 -129.6514261 140.72131672 -129 143 C-128.47212891 144.85431641 -128.47212891 144.85431641 -127.93359375 146.74609375 C-123.59803251 160.72577472 -117.28733799 172.6977819 -108 184 C-107.30132812 184.86367187 -106.60265625 185.72734375 -105.8828125 186.6171875 C-92.55820017 202.28458881 -73.1474437 213.85651049 -53 218 C-52.3002002 218.14518066 -51.60040039 218.29036133 -50.87939453 218.43994141 C-23.7263946 223.92474135 4.40882665 220.27774596 28 205 C38.6927635 197.85694302 54.26300612 186.50175705 59 174 C58.64484738 170.16809018 57.22625435 166.93899984 55.6875 163.4375 C44.27090933 136.29430892 42.15009554 106.10607382 52 78 C53.48717179 74.3740944 55.0882353 70.8025079 56.80151367 67.27783203 C58.48655123 63.756504 58.48655123 63.756504 58.98828125 59.9375 C57.45482094 56.93119046 55.45845824 54.32449555 53.375 51.6875 C52.91770508 51.10572998 52.46041016 50.52395996 51.98925781 49.92456055 C35.46817851 29.15113448 10.19314229 16.29569309 -16 13 C-40.35410348 11.11196454 -65.71620421 14.7584313 -85.77734375 29.7421875 C-90.06484029 32.74603356 -91.87368862 32.84037891 -97 32 C-100.03618816 29.48218543 -100.88726748 28.03713916 -101.3125 24.125 C-96.71442899 13.17721189 -78.99210668 7.54029601 -68.6875 3.25 C-46.88956992 -4.60151328 -22.45157847 -6.02596479 0 0 Z " fill="#00D49F" transform="translate(187,52)"/>
<path d="M0 0 C8.90804046 6.96453909 17.65898629 15.10307755 23.25 25.0625 C23.1606216 29.59845385 20.74610563 33.70759603 18.9375 37.8125 C14.21901726 48.88752553 10.69952753 60.96271728 10.25 73.0625 C10.1984375 74.32835937 10.146875 75.59421875 10.09375 76.8984375 C9.5595835 96.53949788 12.48958648 116.86911211 22.03125 134.3203125 C23.46686055 137.55043624 23.46541645 138.77874328 22.25 142.0625 C8.00378118 164.79242217 -17.0917773 179.96943757 -42.75 186.0625 C-58.86744323 189.08236356 -73.82472202 188.36636264 -89.75 185.0625 C-90.93464844 184.81886719 -92.11929688 184.57523438 -93.33984375 184.32421875 C-107.8013052 180.76369557 -121.73786703 173.03054881 -132.75 163.0625 C-133.56339844 162.38960937 -134.37679687 161.71671875 -135.21484375 161.0234375 C-154.8744796 144.36272916 -166.80981575 119.50148548 -169.75 94.0625 C-171.41100717 67.20741797 -166.41271938 42.83276772 -149.99609375 21.0703125 C-148.0926134 18.00326266 -148.19167857 15.55200891 -148.75 12.0625 C-149.01039063 11.43085937 -149.27078125 10.79921875 -149.5390625 10.1484375 C-149.75 8.0625 -149.75 8.0625 -148.0546875 5.84375 C-147.25289062 5.0909375 -146.45109375 4.338125 -145.625 3.5625 C-144.79871094 2.78003906 -143.97242188 1.99757813 -143.12109375 1.19140625 C-140.73358977 -0.95223406 -138.32784271 -3.02490702 -135.75 -4.9375 C-135.09 -4.2775 -134.43 -3.6175 -133.75 -2.9375 C-126.81748812 -1.80308896 -123.49136365 -4.10135088 -117.83203125 -7.93359375 C-81.66050269 -31.45196403 -33.37981588 -25.2907834 0 0 Z " fill="#FDE34B" transform="translate(223.75,85.9375)"/>
<path d="M0 0 C159.06 0 318.12 0 482 0 C482 47 482 47 477 57 C470.66388637 62.52969916 464.72106176 64.30676616 456.30309486 64.25726891 C455.54386553 64.26077498 454.7846362 64.26428105 454.00239992 64.26789337 C451.45567927 64.27720496 448.90918742 64.2722847 446.36245728 64.26742554 C444.51919283 64.27116191 442.67592996 64.27576338 440.83266962 64.28115618 C435.76514899 64.29340303 430.69769429 64.29312373 425.63016224 64.29076743 C420.16584058 64.2903597 414.70154018 64.30139422 409.23722839 64.31088257 C398.53113018 64.32750235 387.82505398 64.33299254 377.11894394 64.33410732 C368.41825533 64.33505725 359.71757398 64.33916478 351.01688766 64.34550858 C326.35698362 64.36312298 301.69709474 64.37235918 277.03718467 64.37084763 C276.37258426 64.37080774 275.70798384 64.37076785 275.02324403 64.37072675 C273.67926049 64.37064587 272.33527696 64.37056228 270.99129343 64.37047596 C250.07847772 64.3692503 229.16572685 64.38426669 208.25292969 64.41162109 C184.7574223 64.44234108 161.2619472 64.45952833 137.76641691 64.45769465 C125.32592345 64.45703014 112.88550312 64.46254906 100.4450264 64.48405075 C89.85433017 64.50223786 79.26374023 64.50663013 68.67303516 64.4930319 C63.26851681 64.48649005 57.86420253 64.48642909 52.45970345 64.5037384 C47.51260169 64.51942002 42.56586665 64.51665575 37.6187741 64.49917014 C35.82878096 64.49608943 34.03876078 64.49977278 32.24879952 64.51089029 C29.81495187 64.52500627 27.38239149 64.51443014 24.94858742 64.49777794 C24.2541762 64.5077143 23.55976498 64.51765066 22.844311 64.52788812 C16.20885123 64.43195126 11.28251678 61.86751373 6.25 57.75 C-7.56667742 40.86294982 0 23.82165703 0 0 Z " fill="#A7CEED" transform="translate(15,337)"/>
<path d="M0 0 C0.9580957 0.24943359 0.9580957 0.24943359 1.93554688 0.50390625 C27.90549421 7.39858253 50.16081538 22.00868766 67 43 C67.33 43.66 67.66 44.32 68 45 C68.66 45 69.32 45 70 45 C71.24549452 43.56932405 72.42106422 42.07749658 73.5625 40.5625 C90.94719124 18.40248065 119.02831413 1.34272268 147.24780273 -2.28930664 C179.3129446 -5.61094 211.42179621 -0.0386083 237.484375 19.9375 C241.80240157 23.47774539 245.9413459 27.16609222 250 31 C251.12535156 32.02867188 251.12535156 32.02867188 252.2734375 33.078125 C263.38303832 43.60300999 270.71815611 56.20306679 277 70 C277.61488281 71.32257813 277.61488281 71.32257813 278.2421875 72.671875 C287.70922844 94.54147345 289.54123302 122.14893226 283 145 C282.76893555 145.81130371 282.53787109 146.62260742 282.29980469 147.45849609 C272.9617772 179.29588416 253.55217642 205.82133565 224.16796875 222.00927734 C195.10991311 237.47942527 162.83000933 241.53806443 131.08862305 232.15185547 C115.12160202 226.99915849 100.78811809 218.78825457 88 208 C86.88431641 207.11054688 86.88431641 207.11054688 85.74609375 206.203125 C80.7481319 202.09521115 76.9490686 197.33301794 73.078125 192.16015625 C72.04945313 191.09087891 72.04945313 191.09087891 71 190 C69.68 190 68.36 190 67 190 C64.90480395 192.09528664 64.90480395 192.09528664 62.9375 194.875 C55.63058212 204.19431493 46.92810094 211.57219106 37 218 C35.88625 218.75023437 35.88625 218.75023437 34.75 219.515625 C7.8759955 236.76583059 -24.26293524 239.8853639 -55 234 C-56.06863281 233.80664062 -57.13726562 233.61328125 -58.23828125 233.4140625 C-78.90406309 229.01222239 -96.56151599 216.87968825 -112 203 C-112.65355469 202.43023437 -113.30710938 201.86046875 -113.98046875 201.2734375 C-125.00250553 191.06299962 -132.55152251 177.37754228 -139 164 C-139.43054688 163.12085938 -139.86109375 162.24171875 -140.3046875 161.3359375 C-152.31529811 134.2422345 -151.01721517 100.09350459 -140.56396484 72.86254883 C-129.68604491 46.34302246 -129.68604491 46.34302246 -121 42 C-117.45768939 41.61496624 -115.63742658 41.58064041 -112.625 43.5625 C-110.37519468 46.93720798 -110.62009132 48.98799735 -111 53 C-112.27260515 55.37783819 -113.49392502 57.3468258 -115.0625 59.5 C-130.52442105 82.31762185 -135.73876014 108.90242954 -130.8125 136.125 C-130.25539606 138.42856 -129.6514261 140.72131672 -129 143 C-128.47212891 144.85431641 -128.47212891 144.85431641 -127.93359375 146.74609375 C-123.59803251 160.72577472 -117.28733799 172.6977819 -108 184 C-107.30132812 184.86367187 -106.60265625 185.72734375 -105.8828125 186.6171875 C-92.55820017 202.28458881 -73.1474437 213.85651049 -53 218 C-52.3002002 218.14518066 -51.60040039 218.29036133 -50.87939453 218.43994141 C-23.7263946 223.92474135 4.40882665 220.27774596 28 205 C38.6927635 197.85694302 54.26300612 186.50175705 59 174 C58.64484738 170.16809018 57.22625435 166.93899984 55.6875 163.4375 C44.27090933 136.29430892 42.15009554 106.10607382 52 78 C53.48717179 74.3740944 55.0882353 70.8025079 56.80151367 67.27783203 C58.48655123 63.756504 58.48655123 63.756504 58.98828125 59.9375 C57.45482094 56.93119046 55.45845824 54.32449555 53.375 51.6875 C52.91770508 51.10572998 52.46041016 50.52395996 51.98925781 49.92456055 C35.46817851 29.15113448 10.19314229 16.29569309 -16 13 C-40.35410348 11.11196454 -65.71620421 14.7584313 -85.77734375 29.7421875 C-90.06484029 32.74603356 -91.87368862 32.84037891 -97 32 C-100.03618816 29.48218543 -100.88726748 28.03713916 -101.3125 24.125 C-96.71442899 13.17721189 -78.99210668 7.54029601 -68.6875 3.25 C-46.88956992 -4.60151328 -22.45157847 -6.02596479 0 0 Z M87.25 46.8125 C67.89390623 69.28825723 58.98840886 97.54230147 61 127 C63.65096417 152.2839271 75.21903544 174.19427087 93 192 C93.86367188 192.87527344 94.72734375 193.75054687 95.6171875 194.65234375 C112.20593706 210.6257836 135.88393213 221.1807865 159 222 C160.05316406 222.03996094 161.10632813 222.07992187 162.19140625 222.12109375 C188.39325457 222.61878249 214.18968922 214.44639134 234 197 C234.81855469 196.32453125 235.63710938 195.6490625 236.48046875 194.953125 C251.42081607 182.25962061 261.03459581 165.49581666 267 147 C267.21317871 146.36030273 267.42635742 145.72060547 267.64599609 145.06152344 C273.5989217 126.56543895 273.15695731 105.34260199 267 87 C266.566875 85.46472656 266.566875 85.46472656 266.125 83.8984375 C258.67977218 58.70431834 239.9217448 37.36645983 217.14453125 24.83984375 C172.6945397 1.29662333 121.56777448 10.59477953 87.25 46.8125 Z " fill="#030403" transform="translate(187,52)"/>
<path d="M0 0 C30.36 0 60.72 0 92 0 C92.33 7.26 92.66 14.52 93 22 C95.60385848 26.3476344 95.60385848 26.3476344 100 27 C100 33.93 100 40.86 100 48 C98.35 48.66 96.7 49.32 95 50 C89.24132019 58.63801972 92.37053547 70.62500693 92 81 C61.64 81 31.28 81 0 81 C0 54.27 0 27.54 0 0 Z " fill="#A8CFEE" transform="translate(210,416)"/>
<path d="M0 0 C7.99551706 0.79955171 12.57193965 3.04438056 17.703125 9.0859375 C20.34125414 12.97956183 21.25010072 16.50761328 21.24609566 21.17551136 C21.2500774 22.20293886 21.25405914 23.23036636 21.25816154 24.28892803 C21.24942355 25.97083595 21.24942355 25.97083595 21.24050903 27.6867218 C21.24307709 29.47739578 21.24307709 29.47739578 21.24569702 31.304245 C21.24843176 34.62091886 21.24215793 37.937357 21.23214546 41.25400247 C21.22341434 44.88430884 21.22633454 48.51460921 21.2277813 52.14492321 C21.22884481 59.19253479 21.21960825 66.24009541 21.20677864 73.2876939 C21.19238323 81.43931888 21.19078939 89.59091322 21.18920898 97.74255371 C21.17870669 119.26587722 21.15078448 140.78918937 21.125 162.3125 C21.08375 210.389375 21.0425 258.46625 21 308 C-138.06 308 -297.12 308 -461 308 C-461 307.67 -461 307.34 -461 307 C-306.23 307 -151.46 307 8 307 C7.87625 234.7609375 7.87625 234.7609375 7.75 161.0625 C7.73420898 145.84777588 7.71841797 130.63305176 7.70214844 114.95727539 C7.66893465 101.33641091 7.66893465 101.33641091 7.63043213 87.71556091 C7.61340514 81.64176092 7.6072408 75.56806863 7.60845947 69.49424744 C7.60982774 62.488126 7.59739056 55.48219063 7.56796111 48.47612837 C7.55334172 44.89277328 7.54488087 41.30970766 7.55417585 37.72632802 C7.56399699 33.88592942 7.54295119 30.04604794 7.51898193 26.20570374 C7.53062315 24.53543704 7.53062315 24.53543704 7.54249954 22.83142757 C7.44350803 13.84819814 4.8355379 7.49508374 0 0 Z " fill="#CAE6ED" transform="translate(476,15)"/>
<path d="M0 0 C4.06369227 0.6530934 4.99191282 1.39817185 7.5 4.5625 C7.99879456 6.98399353 7.99879456 6.98399353 7.99829102 9.71069336 C8.00832657 10.73533188 8.01836212 11.7599704 8.02870178 12.81565857 C8.02051926 13.91676468 8.01233673 15.01787079 8.00390625 16.15234375 C8.01332748 17.28901993 8.02274872 18.42569611 8.03245544 19.59681702 C8.06115567 23.23139428 8.06418172 26.86531843 8.0625 30.5 C8.0661053 34.13101579 8.0756206 37.76155514 8.10325623 41.39247131 C8.12006605 43.65171784 8.12290375 45.9111213 8.11024475 48.1703949 C8.11712814 49.19818558 8.12401154 50.22597626 8.13110352 51.28491211 C8.12966087 52.63582191 8.12966087 52.63582191 8.12818909 54.01402283 C8.76056907 58.34850008 10.79933974 60.93190577 14 63.8125 C18.21933178 66.76603225 22.46516127 67.35983211 27.5 66.5625 C32.76069999 64.30657705 35.85792759 61.66914471 38.5 56.5625 C38.93793491 53.99317832 38.93793491 53.99317832 38.86889648 51.28491211 C38.87577988 50.25712143 38.88266327 49.22933075 38.88975525 48.1703949 C38.88359695 47.07131302 38.87743866 45.97223114 38.87109375 44.83984375 C38.88846936 42.50455578 38.90605381 40.16926935 38.92382812 37.83398438 C38.93392064 34.15809354 38.93749181 30.48230063 38.93579102 26.80639648 C38.9393524 23.25474778 38.96665736 19.70385789 38.99609375 16.15234375 C38.98791122 15.05123764 38.9797287 13.95013153 38.97129822 12.81565857 C38.98133377 11.79102005 38.99136932 10.76638153 39.00170898 9.71069336 C39.00154282 8.81088242 39.00137665 7.91107147 39.00120544 6.98399353 C39.66211462 3.77548357 40.96863751 2.57751572 43.5 0.5625 C47.34435842 -0.17365374 48.89911296 0.15698152 52.14990234 2.35083008 C55.694326 7.19467936 55.21682736 11.65190549 55.1640625 17.51171875 C55.16884613 18.6795137 55.17362976 19.84730865 55.17855835 21.05049133 C55.18195852 23.52089789 55.17274817 25.99134937 55.15185547 28.46166992 C55.12521532 32.21962587 55.15154062 35.97456175 55.18359375 39.73242188 C55.18028732 42.13802737 55.17387629 44.543631 55.1640625 46.94921875 C55.17418365 48.06310471 55.18430481 49.17699066 55.19473267 50.32463074 C55.06464394 59.10869554 52.820599 65.63021171 47.125 72.375 C45.825625 73.4578125 45.825625 73.4578125 44.5 74.5625 C43.73042969 75.20638672 43.73042969 75.20638672 42.9453125 75.86328125 C36.13135842 81.1857016 28.8743084 83.19453752 20.26171875 82.90625 C11.89633813 81.86501451 4.30175219 77.62744805 -1.5 71.5625 C-5.13285592 65.85744226 -7.60423676 60.23487217 -7.67700195 53.43603516 C-7.68983719 52.39130035 -7.70267242 51.34656555 -7.71589661 50.27017212 C-7.72328354 49.14203094 -7.73067047 48.01388977 -7.73828125 46.8515625 C-7.746353 45.69127533 -7.75442474 44.53098816 -7.76274109 43.33554077 C-7.77657748 40.879308 -7.78730162 38.42305603 -7.79516602 35.96679688 C-7.81240017 32.20926624 -7.85629435 28.45261051 -7.90039062 24.6953125 C-7.91051569 22.30990231 -7.91903238 19.92448463 -7.92578125 17.5390625 C-7.94328934 16.41496979 -7.96079742 15.29087708 -7.97883606 14.13272095 C-7.95724307 6.37522563 -7.95724307 6.37522563 -5.69213867 2.34912109 C-3.5 0.5625 -3.5 0.5625 0 0 Z " fill="#040401" transform="translate(117.5,127.4375)"/>
<path d="M0 0 C4.30584936 0.79087029 5.46422585 2.02387231 8.0625 5.5625 C8.7889714 9.45619102 8.7121671 13.2991058 8.6640625 17.25 C8.67206879 18.38526123 8.68007507 19.52052246 8.68832397 20.69018555 C8.71139885 24.31465384 8.70192491 27.93800135 8.6875 31.5625 C8.68365358 35.18678857 8.68708111 38.81058171 8.70809937 42.43481445 C8.72019482 44.68852781 8.71750942 46.94238017 8.69839478 49.19604492 C8.70205048 50.22060791 8.70570618 51.2451709 8.70947266 52.30078125 C8.70549469 53.19837158 8.70151672 54.09596191 8.69741821 55.02075195 C9.14859656 58.16191569 10.21184084 60.00130032 12.0625 62.5625 C16.58949027 65.9124728 20.12550271 67.27523447 25.78125 67.0234375 C31.11203327 65.94632718 35.09123125 63.01940313 38.0625 58.5625 C38.35643256 56.15327224 38.35643256 56.15327224 38.30200195 53.43603516 C38.30573318 52.39130035 38.30946442 51.34656555 38.31330872 50.27017212 C38.30917465 49.14203094 38.30504059 48.01388977 38.30078125 46.8515625 C38.31619957 44.4687443 38.3325031 42.08593168 38.34960938 39.703125 C38.36607708 35.94160655 38.37498684 32.18049691 38.36791992 28.41894531 C38.365304 24.79184515 38.39339427 21.16599588 38.42578125 17.5390625 C38.41557449 16.41496979 38.40536774 15.29087708 38.39485168 14.13272095 C38.49260035 6.34231279 38.49260035 6.34231279 41.41088867 2.34912109 C44.66285454 0.15798895 46.21855755 -0.17357409 50.0625 0.5625 C52.69580062 2.63053019 53.91576466 3.82566487 54.5771637 7.14689636 C54.58646156 8.61175224 54.58646156 8.61175224 54.59594727 10.10620117 C54.6117836 11.21803268 54.62761993 12.3298642 54.64393616 13.47538757 C54.63897629 14.67331436 54.63401642 15.87124115 54.62890625 17.10546875 C54.63820412 18.96272331 54.63820412 18.96272331 54.64768982 20.85749817 C54.65661518 24.15046482 54.64547703 27.44268824 54.62860107 30.7355957 C54.6250164 32.74082645 54.63887957 34.74512458 54.65942383 36.75024414 C54.69644283 40.61908807 54.69891404 44.48648076 54.69140625 48.35546875 C54.70466446 49.54327438 54.71792267 50.73108002 54.73158264 51.95487976 C54.63584316 60.56847142 52.74010128 66.297657 47.10546875 72.83203125 C38.94728826 79.6162024 31.68303772 82.96782269 21.00390625 82.83984375 C12.34089934 82.02301309 4.20582723 77.32785346 -1.47265625 70.796875 C-5.21700439 65.77530024 -7.17822043 61.26586944 -7.22802734 54.91772461 C-7.24078705 53.80985092 -7.25354675 52.70197723 -7.26669312 51.56053162 C-7.26891876 50.37395462 -7.27114441 49.18737762 -7.2734375 47.96484375 C-7.2800943 46.73842667 -7.2867511 45.51200958 -7.29360962 44.24842834 C-7.30372467 41.65871682 -7.30842699 39.0689793 -7.30810547 36.47924805 C-7.31248772 32.5111226 -7.34884697 28.54410127 -7.38671875 24.57617188 C-7.39258519 22.05989964 -7.39655574 19.54362212 -7.3984375 17.02734375 C-7.41280853 15.83874252 -7.42717957 14.6501413 -7.44198608 13.42552185 C-7.43583282 12.32080032 -7.42967957 11.2160788 -7.42333984 10.07788086 C-7.42618988 9.10701035 -7.42903992 8.13613983 -7.43197632 7.135849 C-6.59162193 2.76248463 -4.28751713 0.82101392 0 0 Z " fill="#000403" transform="translate(289.9375,127.4375)"/>
<path d="M0 0 C4.92483065 4.16912388 8.24829117 9.4840674 11.8125 14.8125 C12.7087207 16.13797852 12.7087207 16.13797852 13.62304688 17.49023438 C15.0869968 19.65688026 16.54578928 21.82681067 18 24 C22.27300808 20.03775615 25.41229126 15.72054148 28.625 10.875 C29.57251814 9.45372279 30.52294016 8.03437626 31.4765625 6.6171875 C31.88986816 5.99440918 32.30317383 5.37163086 32.72900391 4.72998047 C34.04899564 2.93331097 35.28707355 1.43146723 37 0 C40.93094707 -0.50030235 43.1005787 -0.5996142 46.4375 1.625 C48.45625145 4.69350221 48.31416158 6.36918977 48 10 C46.85546875 12.46484375 46.85546875 12.46484375 45.1875 14.9375 C44.55972656 15.87464844 43.93195313 16.81179687 43.28515625 17.77734375 C40.13575729 22.21880383 36.9252343 26.61463758 33.64526367 30.96069336 C31.64913106 33.6248964 30.06039692 35.81880924 29 39 C30.04142421 41.11120025 30.04142421 41.11120025 31.68359375 43.28125 C32.27833496 44.11817383 32.87307617 44.95509766 33.48583984 45.81738281 C34.1298877 46.70264648 34.77393555 47.58791016 35.4375 48.5 C36.07896973 49.40331055 36.72043945 50.30662109 37.38134766 51.23730469 C40.09142752 55.04085356 42.82156412 58.81768871 45.71484375 62.484375 C51.47010724 69.85277744 51.47010724 69.85277744 51.8125 74.4375 C51 78 51 78 48.875 80.5625 C46 82 46 82 43.0625 82.1875 C35.64377877 79.31085299 31.01100375 69.98265152 26.625 63.6875 C25.98433594 62.78193359 25.34367187 61.87636719 24.68359375 60.94335938 C24.07902344 60.07904297 23.47445312 59.21472656 22.8515625 58.32421875 C22.30322754 57.54135498 21.75489258 56.75849121 21.18994141 55.9519043 C20 54 20 54 20 52 C17.19419324 54.68087501 14.88554362 57.39474604 12.6875 60.58984375 C12.08679688 61.45673828 11.48609375 62.32363281 10.8671875 63.21679688 C10.25101562 64.11462891 9.63484375 65.01246094 9 65.9375 C-1.20191022 80.73880698 -1.20191022 80.73880698 -5.4375 82.125 C-9 82 -9 82 -11.9375 79.9375 C-14.44593595 76.36487911 -14.63981352 75.28875 -14 71 C-12.30566948 67.9275681 -10.20288442 65.21114298 -8.0625 62.4375 C-6.87311852 60.8389726 -5.68432032 59.24001106 -4.49609375 57.640625 C-3.33121394 56.09338491 -2.16587324 54.54649166 -1 53 C0.81494148 50.5785183 2.60503294 48.1419847 4.375 45.6875 C5.10460937 44.70136719 5.83421875 43.71523437 6.5859375 42.69921875 C8.17511178 40.15300342 8.17511178 40.15300342 8.05078125 37.59765625 C6.53912716 33.86066751 4.2633198 30.92776128 1.8125 27.75 C0.81163356 26.41080336 -0.18837129 25.07096235 -1.1875 23.73046875 C-2.80428505 21.58068356 -4.42929865 19.43817166 -6.0625 17.30078125 C-8.62771544 13.76744363 -10.3606843 11.05429036 -10.625 6.625 C-10 3 -10 3 -8.375 1 C-5.24440659 -0.3181446 -3.3696628 -0.55014903 0 0 Z " fill="#000302" transform="translate(372,128)"/>
<path d="M0 0 C22.72115642 15.42955321 35.57145322 38.81677729 42 65 C45.32203797 82.66194318 43.72139879 101.06374781 38 118 C37.77538086 118.68481445 37.55076172 119.36962891 37.31933594 120.07519531 C28.68003209 145.76674955 9.14676881 166.99110571 -14.93408203 179.02294922 C-27.47677616 184.95486388 -40.98532639 189.83715971 -55 189 C-51.53204926 187.08961522 -47.96740002 186.02627945 -44.1875 184.875 C-29.88450617 180.25168611 -16.31326263 172.53088731 -5.76171875 161.703125 C-4 160 -4 160 -2 160 C-1.75378906 159.42894531 -1.50757813 158.85789063 -1.25390625 158.26953125 C0.20437996 155.63007863 1.95288115 153.84176687 4.0625 151.6875 C24.7724356 129.01311714 31.34543497 98.33291005 30.23828125 68.49511719 C28.7447669 46.58819974 18.73333892 24.8800067 4.796875 8.15625 C0 2.4 0 2.4 0 0 Z " fill="#00BF74" transform="translate(415,84)"/>
<path d="M0 0 C159.06 0 318.12 0 482 0 C482 47 482 47 477 57 C470.65477895 62.53764746 464.71072802 64.30924448 456.28074837 64.24609566 C455.51912226 64.24840335 454.75749616 64.25071103 453.97279048 64.25308865 C451.41798026 64.2583869 448.86342159 64.24940603 446.30862427 64.24050903 C444.45965957 64.24138114 442.61069512 64.2431322 440.76173198 64.24568737 C435.67875299 64.25016397 430.59585813 64.24215287 425.51288986 64.23213124 C420.03237153 64.22350359 414.55185805 64.22641642 409.07133484 64.22793579 C399.57522582 64.22898507 390.07914426 64.22270392 380.58304214 64.21146011 C366.85323339 64.19521398 353.12343792 64.18999801 339.3936206 64.18748413 C317.11852648 64.18310564 294.8434452 64.16980951 272.56835938 64.15087891 C250.92871171 64.13250956 229.28906796 64.11834257 207.64941406 64.10986328 C206.64883331 64.1094687 206.64883331 64.1094687 205.6280388 64.10906615 C198.26449305 64.10616744 190.90094725 64.10338376 183.53740144 64.10064721 C128.02492418 64.0799099 72.51246279 64.04468016 17 64 C17 63.67 17 63.34 17 63 C17.93797165 62.99978263 18.87594329 62.99956526 19.84233832 62.99934131 C75.38981938 62.98602806 130.93723079 62.94640673 186.48466669 62.87314438 C193.14895724 62.86437725 199.81324805 62.85582172 206.47753906 62.84741211 C207.47231974 62.84615054 207.47231974 62.84615054 208.487197 62.84486348 C229.9940456 62.81770381 251.5008654 62.80676193 273.00772981 62.80420476 C295.72952965 62.80141523 318.45124946 62.78020036 341.17301393 62.73947543 C354.78962461 62.7156679 368.40608121 62.70669627 382.02270988 62.71648689 C391.35032651 62.72178789 400.67780461 62.70884362 410.00538179 62.6813371 C415.39318643 62.66599426 420.7806812 62.6589014 426.16849518 62.67340279 C431.09598745 62.68648833 436.02287728 62.67679114 440.9503012 62.64856227 C442.73770047 62.64241754 444.52515255 62.64481182 446.312525 62.65637074 C448.73365063 62.67080939 451.15269112 62.65479393 453.57369614 62.63085651 C454.62642812 62.6481526 454.62642812 62.6481526 455.70042741 62.6657981 C459.14919738 62.59809787 460.71235958 62.26556616 463.27664399 59.89807147 C474.54923969 40.94157739 468.43459025 28.70507793 469 1 C314.23 1 159.46 1 0 1 C0 0.67 0 0.34 0 0 Z " fill="#64859E" transform="translate(15,337)"/>
<path d="M0 0 C3.68100872 0.70487401 4.66994506 1.60346473 6.9375 4.5625 C7.4521637 7.82592773 7.4521637 7.82592773 7.47094727 11.74609375 C7.47956284 12.46201691 7.48817841 13.17794006 7.49705505 13.91555786 C7.51972169 16.27740839 7.51297614 18.63807313 7.50390625 21 C7.50914131 22.64380242 7.51541736 24.28760182 7.52268982 25.93139648 C7.53309504 29.37465563 7.5285307 32.81750153 7.51391602 36.26074219 C7.49672124 40.67298281 7.52023004 45.08392205 7.55540562 49.49601746 C7.57736654 52.88985826 7.57594154 56.28338697 7.5676403 59.67727661 C7.56682018 61.30397978 7.57369536 62.93070572 7.58841133 64.55734253 C7.60583627 66.83201101 7.59133678 69.10433221 7.56860352 71.37890625 C7.56716087 73.31938843 7.56716087 73.31938843 7.56568909 75.29907227 C6.9375 78.5625 6.9375 78.5625 4.55430603 80.97241211 C1.9375 82.5625 1.9375 82.5625 -0.5625 83.1875 C-4.28299589 82.25737603 -6.13534209 79.72355303 -8.0625 76.5625 C-8.69741821 73.17918396 -8.69741821 73.17918396 -8.70947266 69.44311523 C-8.71823425 68.75776703 -8.72699585 68.07241882 -8.73602295 67.36630249 C-8.75790051 65.11724173 -8.74351042 62.8701719 -8.7265625 60.62109375 C-8.72993367 59.04980596 -8.7347888 57.47852072 -8.74105835 55.90724182 C-8.74841345 52.62125716 -8.73776773 49.33595401 -8.71435547 46.05004883 C-8.68584373 41.84416036 -8.70229365 37.63986557 -8.73221779 33.4340353 C-8.75030828 30.19196111 -8.74452538 26.95026325 -8.73157883 23.70817757 C-8.72825082 22.15767285 -8.73231066 20.60713363 -8.74397659 19.05666924 C-8.75671843 16.88769219 -8.73726983 14.72127698 -8.70947266 12.55249023 C-8.70549469 11.32038315 -8.70151672 10.08827606 -8.69741821 8.8188324 C-7.71222763 3.76604298 -5.08433233 0.93385696 0 0 Z " fill="#070602" transform="translate(200.0625,127.4375)"/>
<path d="M0 0 C3.96 0 7.92 0 12 0 C12.03738281 1.54171875 12.07476562 3.0834375 12.11328125 4.671875 C12.1789408 6.697941 12.24538814 8.72398158 12.3125 10.75 C12.33505859 11.76578125 12.35761719 12.7815625 12.38085938 13.828125 C12.41630859 14.8078125 12.45175781 15.7875 12.48828125 16.796875 C12.51446533 17.69760742 12.54064941 18.59833984 12.56762695 19.52636719 C13.08533095 22.48818364 13.89224836 23.86858595 16 26 C17.32 26.33 18.64 26.66 20 27 C20 33.93 20 40.86 20 48 C18.35 48.66 16.7 49.32 15 50 C12.64290358 53.53564463 12.69990265 55.22025255 12.5859375 59.41796875 C12.52792969 61.29838867 12.52792969 61.29838867 12.46875 63.21679688 C12.42234375 65.18229492 12.42234375 65.18229492 12.375 67.1875 C12.33680662 68.5228116 12.29775409 69.85809892 12.2578125 71.19335938 C12.16340847 74.46209888 12.07782983 77.73083064 12 81 C8.04 81 4.08 81 0 81 C0 54.27 0 27.54 0 0 Z " fill="#88BDE6" transform="translate(290,416)"/>
<path d="M0 0 C0.66 0 1.32 0 2 0 C2.8709379 1.72078041 3.72114558 3.45206323 4.5625 5.1875 C5.03816406 6.15042969 5.51382813 7.11335937 6.00390625 8.10546875 C7.13185768 11.3831629 7.1460022 12.7608431 6 16 C-7.8311005 38.06759855 -31.29200004 52.1116098 -55.73828125 59.2890625 C-61.43935167 60.53169102 -67.17988138 60.8254837 -73 61 C-70.32139742 59.62743698 -67.62779604 58.39851934 -64.83984375 57.265625 C-35.77640579 45.33957307 -14.28796121 28.45976014 0 0 Z " fill="#FAD101" transform="translate(240,212)"/>
<path d="M0 0 C0.83208984 -0.00287018 1.66417969 -0.00574036 2.52148438 -0.00869751 C4.27995484 -0.01073812 6.03844801 -0.00520843 7.796875 0.00732422 C10.49009913 0.02337848 13.1818226 0.00747605 15.875 -0.01171875 C17.58333665 -0.00973632 19.29167236 -0.00589264 21 0 C22.20946289 -0.00910904 22.20946289 -0.00910904 23.44335938 -0.0184021 C29.03792539 0.05205522 29.03792539 0.05205522 31.20507812 1.67660522 C33.01038488 4.07708629 32.95829445 6.43405493 33.09375 9.36328125 C32.14889675 12.60189009 30.29099862 13.59349 27.5 15.3984375 C24.77580887 15.78908179 22.46671617 15.96101265 19.75 15.9296875 C18.64640137 15.93542786 18.64640137 15.93542786 17.52050781 15.94128418 C15.97068914 15.94399653 14.42082416 15.93668269 12.87109375 15.91992188 C10.50676857 15.89849883 8.14548134 15.91974261 5.78125 15.9453125 C4.27082667 15.9426691 2.76040521 15.93754386 1.25 15.9296875 C0.5477832 15.93778442 -0.15443359 15.94588135 -0.87792969 15.95422363 C-5.66764265 15.8632981 -8.15092589 14.81482768 -11.5 11.3984375 C-12.35917455 8.45350368 -11.8985621 6.53711401 -11.5 3.3984375 C-8.4733987 -0.62597502 -4.66029862 -0.03509892 0 0 Z " fill="#050607" transform="translate(245.5,361.6015625)"/>
<path d="M0 0 C11.31529224 6.84872952 20.69774997 17.04662496 28 28 C27.69927118 31.90947472 26.38112379 33.97706386 24 37 C23.5153125 36.04480469 23.030625 35.08960938 22.53125 34.10546875 C16.74084855 22.86613609 10.16628489 13.02683758 1.46875 3.77734375 C0 2 0 2 0 0 Z " fill="#F6CE01" transform="translate(219,83)"/>
</svg>
